<svg xmlns="http://www.w3.org/2000/svg" xmlns:xlink="http://www.w3.org/1999/xlink" width="1920" zoomAndPan="magnify" viewBox="0 0 1440 809.999993" height="1080" preserveAspectRatio="xMidYMid meet" version="1.0"><defs><g/><clipPath id="72755fda8d"><path d="M 358.859375 358.179688 L 435.359375 358.179688 L 435.359375 451.929688 L 358.859375 451.929688 Z M 358.859375 358.179688 " clip-rule="nonzero"/></clipPath></defs><g clip-path="url(#72755fda8d)"><path fill="#ff7e06" d="M 392.441406 384.167969 C 393.417969 382.617188 395.140625 381.582031 397.109375 381.582031 C 399.078125 381.582031 400.804688 382.617188 401.777344 384.167969 L 404.476562 384.167969 C 405.492188 384.167969 406.3125 383.359375 406.3125 382.328125 C 406.3125 381.304688 405.472656 380.484375 404.476562 380.484375 L 403.523438 380.484375 L 406.433594 377.675781 L 409.121094 378.355469 L 408.65625 380.195312 L 412.949219 381.261719 L 413.214844 380.195312 L 421.429688 382.25 L 422.316406 378.664062 L 414.097656 376.613281 L 414.375 375.535156 L 410.082031 374.460938 L 409.640625 376.234375 L 406.433594 375.457031 C 406.078125 375.378906 405.703125 375.480469 405.425781 375.722656 L 400.304688 380.484375 L 393.890625 380.484375 L 388.78125 375.722656 C 388.503906 375.480469 388.128906 375.378906 387.765625 375.457031 L 384.570312 376.222656 L 384.125 374.460938 L 379.847656 375.535156 L 380.109375 376.613281 L 371.894531 378.664062 L 372.789062 382.25 L 381.007812 380.195312 L 381.273438 381.261719 L 385.550781 380.195312 L 385.097656 378.355469 L 387.765625 377.675781 L 390.683594 380.484375 L 389.746094 380.484375 C 388.726562 380.484375 387.910156 381.296875 387.910156 382.328125 C 387.910156 383.347656 388.75 384.167969 389.746094 384.167969 Z M 391.703125 386.023438 L 386.074219 386.023438 L 386.074219 391.558594 L 387.910156 400.015625 L 387.910156 413.722656 L 390.851562 413.722656 L 390.851562 397.996094 C 391.625 396.742188 393.339844 395.355469 397.109375 395.355469 C 400.871094 395.355469 402.585938 396.730469 403.371094 397.996094 L 403.371094 413.722656 L 406.3125 413.722656 L 406.3125 400.015625 L 408.148438 391.558594 L 408.148438 386.023438 L 402.519531 386.023438 C 402.597656 386.378906 402.628906 386.742188 402.628906 387.132812 C 402.628906 390.183594 400.164062 392.667969 397.109375 392.667969 C 394.058594 392.667969 391.589844 390.183594 391.589844 387.132812 C 391.589844 386.742188 391.625 386.378906 391.703125 386.023438 Z M 397.109375 451.929688 C 397.109375 451.929688 358.886719 430.5 358.886719 396.53125 C 358.886719 375.347656 375.996094 358.179688 397.109375 358.179688 C 418.222656 358.179688 435.332031 375.347656 435.332031 396.53125 C 435.332031 430.5 397.109375 451.929688 397.109375 451.929688 Z M 393.425781 402.625 L 393.425781 424.808594 C 393.425781 426.816406 395.074219 428.492188 397.109375 428.492188 C 399.15625 428.492188 400.792969 426.839844 400.792969 424.808594 L 400.792969 402.625 C 400.792969 400.617188 399.144531 398.949219 397.109375 398.949219 C 395.0625 398.949219 393.425781 400.59375 393.425781 402.625 Z M 393.425781 402.625 " fill-opacity="1" fill-rule="evenodd"/></g><g fill="#ff7e06" fill-opacity="1"><g transform="translate(472.239181, 435.749998)"><g><path d="M 58.65625 0 L 58.484375 -27.4375 L 45.40625 -5.421875 L 36.46875 -5.421875 L 23.390625 -26.484375 L 23.390625 0 L 4.90625 0 L 4.90625 -60.203125 L 21.59375 -60.203125 L 41.1875 -28.125 L 60.28125 -60.203125 L 76.96875 -60.203125 L 77.140625 0 Z M 58.65625 0 "/></g></g></g><g fill="#ff7e06" fill-opacity="1"><g transform="translate(557.715642, 435.749998)"><g><path d="M 36.46875 1.375 C 29.988281 1.375 24.164062 0.03125 19 -2.65625 C 13.84375 -5.351562 9.800781 -9.09375 6.875 -13.875 C 3.957031 -18.664062 2.5 -24.070312 2.5 -30.09375 C 2.5 -36.113281 3.957031 -41.515625 6.875 -46.296875 C 9.800781 -51.085938 13.84375 -54.832031 19 -57.53125 C 24.164062 -60.226562 29.988281 -61.578125 36.46875 -61.578125 C 42.945312 -61.578125 48.765625 -60.226562 53.921875 -57.53125 C 59.078125 -54.832031 63.117188 -51.085938 66.046875 -46.296875 C 68.972656 -41.515625 70.4375 -36.113281 70.4375 -30.09375 C 70.4375 -24.070312 68.972656 -18.664062 66.046875 -13.875 C 63.117188 -9.09375 59.078125 -5.351562 53.921875 -2.65625 C 48.765625 0.03125 42.945312 1.375 36.46875 1.375 Z M 36.46875 -15.046875 C 38.988281 -15.046875 41.265625 -15.660156 43.296875 -16.890625 C 45.335938 -18.128906 46.957031 -19.878906 48.15625 -22.140625 C 49.363281 -24.410156 49.96875 -27.0625 49.96875 -30.09375 C 49.96875 -33.132812 49.363281 -35.785156 48.15625 -38.046875 C 46.957031 -40.316406 45.335938 -42.066406 43.296875 -43.296875 C 41.265625 -44.535156 38.988281 -45.15625 36.46875 -45.15625 C 33.945312 -45.15625 31.664062 -44.535156 29.625 -43.296875 C 27.59375 -42.066406 25.972656 -40.316406 24.765625 -38.046875 C 23.566406 -35.785156 22.96875 -33.132812 22.96875 -30.09375 C 22.96875 -27.0625 23.566406 -24.410156 24.765625 -22.140625 C 25.972656 -19.878906 27.59375 -18.128906 29.625 -16.890625 C 31.664062 -15.660156 33.945312 -15.046875 36.46875 -15.046875 Z M 36.46875 -15.046875 "/></g></g></g><g fill="#ff7e06" fill-opacity="1"><g transform="translate(634.076941, 435.749998)"><g><path d="M 17.96875 -44.46875 L 0.34375 -44.46875 L 0.34375 -60.203125 L 55.90625 -60.203125 L 55.90625 -44.46875 L 38.265625 -44.46875 L 38.265625 0 L 17.96875 0 Z M 17.96875 -44.46875 "/></g></g></g><g fill="#ff7e06" fill-opacity="1"><g transform="translate(693.755771, 435.749998)"><g><path d="M 36.46875 1.375 C 29.988281 1.375 24.164062 0.03125 19 -2.65625 C 13.84375 -5.351562 9.800781 -9.09375 6.875 -13.875 C 3.957031 -18.664062 2.5 -24.070312 2.5 -30.09375 C 2.5 -36.113281 3.957031 -41.515625 6.875 -46.296875 C 9.800781 -51.085938 13.84375 -54.832031 19 -57.53125 C 24.164062 -60.226562 29.988281 -61.578125 36.46875 -61.578125 C 42.945312 -61.578125 48.765625 -60.226562 53.921875 -57.53125 C 59.078125 -54.832031 63.117188 -51.085938 66.046875 -46.296875 C 68.972656 -41.515625 70.4375 -36.113281 70.4375 -30.09375 C 70.4375 -24.070312 68.972656 -18.664062 66.046875 -13.875 C 63.117188 -9.09375 59.078125 -5.351562 53.921875 -2.65625 C 48.765625 0.03125 42.945312 1.375 36.46875 1.375 Z M 36.46875 -15.046875 C 38.988281 -15.046875 41.265625 -15.660156 43.296875 -16.890625 C 45.335938 -18.128906 46.957031 -19.878906 48.15625 -22.140625 C 49.363281 -24.410156 49.96875 -27.0625 49.96875 -30.09375 C 49.96875 -33.132812 49.363281 -35.785156 48.15625 -38.046875 C 46.957031 -40.316406 45.335938 -42.066406 43.296875 -43.296875 C 41.265625 -44.535156 38.988281 -45.15625 36.46875 -45.15625 C 33.945312 -45.15625 31.664062 -44.535156 29.625 -43.296875 C 27.59375 -42.066406 25.972656 -40.316406 24.765625 -38.046875 C 23.566406 -35.785156 22.96875 -33.132812 22.96875 -30.09375 C 22.96875 -27.0625 23.566406 -24.410156 24.765625 -22.140625 C 25.972656 -19.878906 27.59375 -18.128906 29.625 -16.890625 C 31.664062 -15.660156 33.945312 -15.046875 36.46875 -15.046875 Z M 36.46875 -15.046875 "/></g></g></g><g fill="#ff7e06" fill-opacity="1"><g transform="translate(770.117064, 435.749998)"><g><path d="M 30.703125 -15.140625 L 25.203125 -15.140625 L 25.203125 0 L 4.90625 0 L 4.90625 -60.203125 L 33.890625 -60.203125 C 39.441406 -60.203125 44.28125 -59.285156 48.40625 -57.453125 C 52.539062 -55.617188 55.722656 -52.976562 57.953125 -49.53125 C 60.191406 -46.09375 61.3125 -42.082031 61.3125 -37.5 C 61.3125 -33.195312 60.335938 -29.4375 58.390625 -26.21875 C 56.441406 -23.007812 53.632812 -20.460938 49.96875 -18.578125 L 62.609375 0 L 40.9375 0 Z M 40.84375 -37.5 C 40.84375 -39.726562 40.15625 -41.457031 38.78125 -42.6875 C 37.40625 -43.925781 35.34375 -44.546875 32.59375 -44.546875 L 25.203125 -44.546875 L 25.203125 -30.4375 L 32.59375 -30.4375 C 35.34375 -30.4375 37.40625 -31.050781 38.78125 -32.28125 C 40.15625 -33.519531 40.84375 -35.257812 40.84375 -37.5 Z M 40.84375 -37.5 "/></g></g></g><g fill="#ff7e06" fill-opacity="1"><g transform="translate(837.621158, 435.749998)"><g><path d="M 58.65625 0 L 58.484375 -27.4375 L 45.40625 -5.421875 L 36.46875 -5.421875 L 23.390625 -26.484375 L 23.390625 0 L 4.90625 0 L 4.90625 -60.203125 L 21.59375 -60.203125 L 41.1875 -28.125 L 60.28125 -60.203125 L 76.96875 -60.203125 L 77.140625 0 Z M 58.65625 0 "/></g></g></g><g fill="#ff7e06" fill-opacity="1"><g transform="translate(923.097602, 435.749998)"><g><path d="M 45.921875 -10.484375 L 23.046875 -10.484375 L 19 0 L -1.640625 0 L 24.6875 -60.203125 L 44.640625 -60.203125 L 70.953125 0 L 49.96875 0 Z M 40.328125 -25.109375 L 34.484375 -40.25 L 28.640625 -25.109375 Z M 40.328125 -25.109375 "/></g></g></g><g fill="#ff7e06" fill-opacity="1"><g transform="translate(995.847232, 435.749998)"><g><path d="M 17.96875 -44.46875 L 0.34375 -44.46875 L 0.34375 -60.203125 L 55.90625 -60.203125 L 55.90625 -44.46875 L 38.265625 -44.46875 L 38.265625 0 L 17.96875 0 Z M 17.96875 -44.46875 "/></g></g></g><g fill="#ff7e06" fill-opacity="1"><g transform="translate(1055.526062, 435.749998)"><g><path d="M 54.953125 -15.3125 L 54.953125 0 L 4.90625 0 L 4.90625 -60.203125 L 53.84375 -60.203125 L 53.84375 -44.890625 L 24.859375 -44.890625 L 24.859375 -37.84375 L 50.3125 -37.84375 L 50.3125 -23.21875 L 24.859375 -23.21875 L 24.859375 -15.3125 Z M 54.953125 -15.3125 "/></g></g></g></svg>